####
#
# OBJ File Generated by Meshlab
#
####
# Object f_proximal_E3M5.obj
#
# Vertices: 549
# Faces: 1092
#
####
vn -2.632599 5.281785 0.400137
v -7.173500 6.949110 4.218380
vn -6.157532 -0.571738 -0.498279
v -9.932700 -1.158790 -0.000310
vn -6.160025 0.572616 -0.496672
v -9.929690 1.155140 -0.000310
vn -4.364516 4.315037 -0.509260
v -7.453600 6.665780 -0.000310
vn -2.546428 -5.698811 -0.076725
v -6.196690 -7.610010 14.000680
vn 1.849350 -3.001791 -0.213576
v -5.999990 -7.697600 7.999690
vn 1.796308 -3.171588 -0.861490
v -5.930790 -7.725430 8.520690
vn 1.162380 -2.404339 -0.400065
v -5.999990 -7.620850 -1.455210
vn -1.817442 5.424732 1.017979
v -6.537300 7.424760 2.976190
vn 1.080122 2.338233 -0.369267
v -6.000000 7.620070 -1.446110
vn 6.283185 0.000004 -0.000005
v -5.999990 -0.000890 -0.000310
vn 3.280098 -1.846950 -4.411052
v -4.999990 3.651980 9.719690
vn -1.954678 -5.887915 -0.565131
v -3.554690 -9.230310 23.119690
vn -0.931473 -6.153061 -0.765272
v -3.566990 -8.615600 18.558680
vn -0.883523 -6.128640 -0.763514
v -1.768990 -9.590400 22.630680
vn -2.806236 -5.594949 -0.428535
v -4.590920 -8.804560 23.599680
vn 2.806236 -5.594949 -0.428535
v 4.594590 -8.804560 23.599680
vn 0.884118 -6.128655 -0.763316
v 1.772660 -9.590400 22.630680
vn 0.931769 -6.153037 -0.765245
v 3.570660 -8.615600 18.558680
vn 1.954682 -5.887914 -0.565138
v 3.558360 -9.230310 23.119690
vn 0.000287 -6.171114 -1.110284
v 0.004060 -8.845590 18.222679
vn 0.000498 -6.174166 -0.907730
v 0.004060 -9.690280 22.445681
vn 6.157736 -0.569606 -0.492611
v 9.936360 -1.158790 -0.000310
vn -3.239380 -2.151869 -3.896407
v 5.003660 3.812540 9.731690
vn -6.283185 0.000003 0.000054
v 6.003660 -0.000890 -0.000310
vn -1.080127 2.338234 -0.369262
v 6.003660 7.620070 -1.446110
vn 2.674223 5.285537 0.460533
v 7.145160 6.978140 3.979190
vn -1.160456 -2.400064 -0.413290
v 6.003660 -7.620850 -1.455220
vn 6.160228 0.570463 -0.490683
v 9.933360 1.155140 -0.000310
vn 4.364631 4.314932 -0.510248
v 7.457260 6.665780 -0.000310
vn -0.433257 6.253157 -0.000833
v -4.472090 7.999110 23.999680
vn 0.145624 4.521765 -2.813354
v -0.920100 7.999110 10.960680
vn 0.689639 4.598435 -2.668032
v -2.734500 7.999110 10.654680
vn 0.512690 4.297813 -2.424260
v -5.102590 7.949110 9.744690
vn 0.176858 -3.260201 -3.116723
v -3.999990 -8.000890 9.999690
vn -1.062950 -6.148756 -0.243575
v -5.009990 -7.964560 14.001680
vn 3.290381 3.168251 0.085753
v -6.000000 6.949110 4.506190
vn 0.846485 5.762276 -1.502064
v -5.646400 6.949110 8.252680
vn -2.276967 5.342318 -0.111106
v -7.173490 6.949110 6.966690
vn -1.846377 5.362720 -0.657696
v -7.064600 7.045250 7.669680
vn -1.356294 5.243045 -1.399763
v -6.704690 7.318100 8.435680
vn -0.449426 5.159837 -1.692127
v -6.020190 7.687410 9.164690
vn -4.553719 -4.185217 -0.498657
v -7.453600 -6.667560 -0.000310
vn -4.610768 -4.232110 -0.006144
v -7.468090 -6.651310 13.999690
vn -6.194984 -0.805869 0.276136
v -9.917190 -1.284970 23.999680
vn -6.247257 -0.010969 0.276739
v -9.999990 -0.020640 23.999680
vn -6.204039 0.760753 0.248974
v -9.922090 1.244820 23.999680
vn -5.915957 1.902593 0.115791
v -9.683890 2.493350 23.999680
vn -5.948863 1.697588 -0.542362
v -9.639090 2.661250 -0.000310
vn -5.755755 2.497448 -0.016131
v -8.939940 4.000250 23.999680
vn -5.670834 2.490524 -0.507778
v -9.119090 4.103040 -0.000310
vn -5.449232 3.008258 -0.049178
v -8.399590 5.425570 23.999680
vn -5.162824 3.412724 -0.550553
v -8.384790 5.448410 -0.000310
vn -4.520864 4.315290 -0.042647
v -7.472990 6.643980 23.999680
vn 0.789447 -1.512232 -1.424187
v -6.000000 -5.498700 -5.791310
vn 0.878147 -1.837661 -1.146025
v -5.999990 -6.965960 -3.901920
vn 0.907535 -0.897203 -2.014175
v -6.000000 -3.360710 -7.260610
vn 0.929623 -1.280085 -1.821028
v -6.000000 -4.500380 -6.615010
vn 0.847287 -0.597049 -2.058399
v -6.000000 -2.248510 -7.678110
vn -5.710018 -0.872810 -1.872350
v -9.412200 -1.475320 -3.039410
vn -4.989638 -0.716862 -3.443905
v -8.060000 -1.203610 -5.796010
vn 0.834568 -0.290218 -2.109385
v -6.000000 -1.132670 -7.919810
vn 0.812460 0.000000 -2.105553
v -6.000000 -0.000890 -8.000310
vn -4.966740 0.735477 -3.461915
v -8.060000 1.201830 -5.796010
vn -5.708102 0.885424 -1.860793
v -9.412200 1.473520 -3.039410
vn 0.807890 0.330892 -2.071874
v -6.000000 1.130890 -7.919810
vn -4.658130 2.121062 -3.368794
v -7.357800 3.502470 -5.796010
vn 0.745674 0.510754 -1.964077
v -6.000000 2.246730 -7.678110
vn -5.156621 2.607729 -1.852319
v -8.510500 4.281100 -3.039410
vn 0.907542 0.897207 -2.014181
v -6.000000 3.358920 -7.260610
vn 0.798095 1.499735 -1.453707
v -6.000000 5.496920 -5.791310
vn 0.929621 1.280082 -1.821029
v -6.000000 4.498600 -6.615010
vn -4.308732 3.939740 -1.873251
v -6.621890 6.665780 -3.421810
vn 0.845138 1.705238 -1.288868
v -6.000000 6.665770 -4.422510
vn -3.656469 -5.005924 -0.355256
v -6.784890 -7.264530 -0.000310
vn -3.737161 -5.013899 -0.029940
v -6.831890 -7.230650 13.999690
vn 1.585437 -2.727582 -0.073338
v -5.999990 -7.697600 -0.000310
vn 1.558735 -3.214957 -1.627213
v -5.718390 -7.801800 9.022690
vn 1.246661 -3.281904 -2.230838
v -5.385500 -7.895220 9.441690
vn 0.976694 -3.361067 -2.669553
v -4.958690 -7.971190 9.754680
vn 1.085204 -2.290792 -0.606790
v -5.999990 -7.347300 -2.898710
vn -1.721017 5.980557 -0.002769
v -5.578890 7.842940 23.999680
vn -3.319046 5.262397 -0.003693
v -6.599290 7.386620 23.999680
vn 1.315744 2.554132 -0.107067
v -6.000000 7.695810 -0.000310
vn 1.687832 2.761611 0.193501
v -6.000000 7.695810 2.181590
vn 0.990382 2.224551 -0.525954
v -6.000000 7.347670 -2.891110
vn 1.176611 2.237291 -0.993148
v -6.000000 7.075160 -3.644210
vn 3.199022 2.961434 1.043587
v -6.000000 7.312520 3.242190
vn -3.318820 3.173383 0.027027
v 6.003660 6.949110 4.506190
vn -3.111125 2.956764 1.056742
v 6.003660 7.312520 3.242190
vn -0.837725 1.716904 -1.252886
v 6.003660 6.665770 -4.422520
vn -0.979840 2.200302 -0.566459
v 6.003660 7.347670 -2.891110
vn 1.874441 5.366854 1.129156
v 6.668860 7.340830 3.170530
vn -1.624348 2.727739 0.191825
v 6.003660 7.695810 2.181590
vn -1.315513 2.553995 -0.105877
v 6.003660 7.695810 -0.000310
vn 3.319046 5.262396 -0.003913
v 6.602960 7.386620 23.999680
vn 1.721017 5.980557 -0.002769
v 5.582560 7.842940 23.999680
vn -1.068558 -2.203482 -0.817429
v 6.003660 -7.185560 -3.392310
vn -0.976155 -3.359892 -2.669935
v 4.962360 -7.971190 9.754680
vn -1.247522 -3.280502 -2.230242
v 5.389160 -7.895220 9.441690
vn -1.558720 -3.214970 -1.627232
v 5.722060 -7.801800 9.022690
vn -1.796307 -3.171590 -0.861487
v 5.934460 -7.725430 8.520690
vn -1.849348 -3.001764 -0.213578
v 6.003660 -7.697600 7.999680
vn -1.585437 -2.727582 -0.073337
v 6.003660 -7.697600 -0.000310
vn 2.546428 -5.698811 -0.076725
v 6.200360 -7.610010 14.000680
vn 3.737161 -5.013899 -0.029940
v 6.835560 -7.230650 13.999680
vn 3.656485 -5.005909 -0.355254
v 6.788560 -7.264530 -0.000310
vn 4.222881 3.991727 -1.901607
v 6.625560 6.665780 -3.421810
vn -0.929621 1.280082 -1.821029
v 6.003660 4.498600 -6.615010
vn -0.798096 1.499734 -1.453711
v 6.003660 5.496920 -5.791310
vn -0.907548 0.897219 -2.014184
v 6.003660 3.358920 -7.260610
vn 5.156622 2.607728 -1.852326
v 8.514160 4.281100 -3.039410
vn -0.745657 0.510741 -1.964059
v 6.003660 2.246730 -7.678120
vn 4.658131 2.121062 -3.368793
v 7.361460 3.502470 -5.796010
vn -0.807890 0.330888 -2.071875
v 6.003660 1.130890 -7.919810
vn 5.707975 0.886196 -1.861542
v 9.415860 1.473520 -3.039410
vn 4.966741 0.735476 -3.461915
v 8.063660 1.201830 -5.796010
vn -0.812460 0.000000 -2.105553
v 6.003660 -0.000890 -8.000310
vn -0.834570 -0.290211 -2.109390
v 6.003660 -1.132670 -7.919810
vn 4.989640 -0.716859 -3.443904
v 8.063660 -1.203610 -5.796010
vn 5.709891 -0.873581 -1.873096
v 9.415860 -1.475320 -3.039410
vn -0.847277 -0.597043 -2.058389
v 6.003660 -2.248510 -7.678120
vn -0.929623 -1.280085 -1.821028
v 6.003660 -4.500380 -6.615010
vn -0.907542 -0.897216 -2.014178
v 6.003660 -3.360710 -7.260610
vn -0.747055 -1.620697 -1.217077
v 6.003660 -6.667550 -4.422520
vn -0.790501 -1.505481 -1.434237
v 6.003660 -5.498700 -5.791310
vn 4.520864 4.315291 -0.042647
v 7.476660 6.643980 23.999680
vn 5.162811 3.412735 -0.550564
v 8.388460 5.448410 -0.000310
vn 5.449232 3.008257 -0.049177
v 8.403260 5.425570 23.999680
vn 5.670832 2.490524 -0.507787
v 9.122760 4.103040 -0.000310
vn 5.755755 2.497447 -0.016131
v 8.943610 4.000250 23.999680
vn 5.948860 1.697588 -0.542371
v 9.642760 2.661250 -0.000310
vn 5.915957 1.902595 0.115791
v 9.687560 2.493350 23.999680
vn 6.204370 0.754983 0.240464
v 9.925760 1.244820 23.999680
vn 6.246876 -0.005187 0.267641
v 10.003660 -0.020640 23.999680
vn 6.194983 -0.805868 0.276136
v 9.920860 -1.284970 23.999680
vn 4.610775 -4.232100 -0.006146
v 7.471760 -6.651310 13.999680
vn 4.553727 -4.185218 -0.498651
v 7.457260 -6.667560 -0.000310
vn -0.512690 4.297813 -2.424261
v 5.106260 7.949110 9.744690
vn 0.555872 5.125276 -1.600813
v 6.023860 7.687410 9.164690
vn 1.886660 5.354826 -0.682754
v 7.068260 7.045250 7.669680
vn 2.305037 5.342073 -0.089390
v 7.177160 6.949110 6.966690
vn 0.000000 -6.222192 -0.616047
v 0.004060 -8.000890 13.998680
vn 0.130155 -6.248733 -0.470547
v 3.582860 -8.000890 13.998680
vn -0.176858 -3.260201 -3.116723
v 4.003660 -8.000890 9.999690
vn 1.062950 -6.148756 -0.243575
v 5.013660 -7.964560 14.001680
vn 0.000000 6.283185 0.000000
v 0.003660 7.999110 23.999680
vn -0.689640 4.598428 -2.668036
v 2.738160 7.999110 10.654680
vn -0.145623 4.521765 -2.813355
v 0.923760 7.999110 10.960680
vn 0.433257 6.253157 -0.000833
v 4.475760 7.999110 23.999680
vn -0.337601 -5.665220 2.138960
v -3.999990 -5.027350 37.820679
vn 0.337601 -5.665220 2.138960
v 4.003660 -5.027350 37.820679
vn -0.985576 -6.055115 -1.005899
v -3.999990 -5.000890 39.422680
vn -0.324330 6.266399 0.000420
v -4.480790 7.999110 34.497681
vn -0.412575 -5.366730 3.179015
v -3.539790 -8.821770 32.401680
vn -0.284015 -5.426922 3.084223
v -2.349090 -9.289700 31.733681
vn -0.161972 -5.434943 3.087411
v -1.162290 -9.554900 31.354679
vn 0.324330 6.266399 0.000420
v 4.484460 7.999110 34.497681
vn 0.000069 -5.478717 2.996549
v 0.003460 -9.639190 31.234680
vn 0.162057 -5.434915 3.087466
v 1.165960 -9.554900 31.354679
vn 0.284015 -5.426922 3.084223
v 2.352760 -9.289700 31.733681
vn 0.412575 -5.366730 3.179015
v 3.543460 -8.821770 32.401680
vn 0.000000 3.141593 3.141593
v 0.003660 7.999110 44.999680
vn 0.167638 3.132657 3.034826
v 4.463870 7.999110 44.999680
vn 0.587159 3.002643 3.799747
v 4.003660 6.949110 44.999680
vn 6.283185 0.000000 0.000000
v 7.003660 -0.000890 44.999680
vn 6.147438 -0.820857 0.391340
v 7.003660 -3.612390 46.599689
vn 6.152654 0.751358 0.479369
v 7.003660 3.377610 47.045681
vn 6.152447 -0.701116 0.551334
v 7.003660 -3.048550 47.512680
vn 6.147551 0.640319 0.645236
v 7.003660 2.701940 47.879681
vn 6.146614 -0.514552 0.754127
v 7.003660 -2.259830 48.239689
vn 6.141081 0.392483 0.842444
v 7.003660 1.827150 48.501678
vn 6.147433 -0.264617 0.866348
v 7.003660 -1.304410 48.728680
vn 6.148396 0.221637 0.877124
v 7.003660 0.817340 48.863682
vn 6.120364 -0.126291 0.985723
v 7.003660 -0.252820 48.941681
vn 1.142428 5.725614 1.432764
v 4.003660 6.692740 46.869671
vn 0.874540 5.090334 3.210469
v 4.003660 5.942760 48.601681
vn 0.958764 4.184749 4.281348
v 4.003660 4.753700 50.068680
vn 0.900821 2.710020 5.368316
v 4.003660 3.214490 51.160679
vn 0.832079 1.317501 5.892117
v 4.003660 1.437860 51.798672
vn 0.922360 -0.412575 5.993773
v 4.003660 -0.444830 51.935680
vn 0.870474 -2.078941 5.642850
v 4.003660 -2.294790 51.560680
vn 1.141481 -3.243793 4.931647
v 4.003660 -3.975530 50.700680
vn 0.874142 -4.711109 3.745256
v 4.003660 -5.363070 49.420681
vn 0.958892 -5.422436 2.537890
v 4.003660 -6.355070 47.814678
vn 0.901636 -5.961338 0.786862
v 4.003660 -6.878280 46.001678
vn 0.833260 -5.995989 -0.701899
v 4.003660 -6.894150 44.113682
vn 0.947591 -5.505896 -2.377848
v 4.003660 -6.401530 42.291691
vn 5.018002 2.769311 1.500790
v 6.602560 4.840070 47.500690
vn 3.581361 4.921495 0.630702
v 5.767060 6.376160 44.999691
vn 2.903239 4.455846 2.335603
v 5.503660 5.816890 48.004681
vn 5.003398 1.815208 2.562586
v 6.602560 3.152590 49.442669
vn 2.937435 2.916411 4.077724
v 5.503660 3.788920 50.339680
vn 5.004765 0.436406 3.102574
v 6.602560 0.761720 50.394680
vn 2.947293 0.714240 4.963521
v 5.503660 0.915600 51.483669
vn 5.005690 -1.022383 2.958194
v 6.602560 -1.799260 50.142681
vn 2.866134 -1.744353 4.707642
v 5.503660 -2.162140 51.180679
vn 5.002554 -2.285327 2.159066
v 6.602560 -3.959100 48.743679
vn 2.912278 -3.637531 3.447010
v 5.503660 -4.757800 49.499680
vn 5.003026 -3.018347 0.867438
v 6.602560 -5.236040 46.509670
vn 2.937685 -4.811890 1.407273
v 5.503660 -6.292410 46.814678
vn -5.027183 -3.054111 -0.589720
v -6.598890 -5.345260 43.938671
vn -2.937685 -4.811890 1.407273
v -5.499990 -6.292410 46.814678
vn -5.003026 -3.018347 0.867438
v -6.598890 -5.236040 46.509670
vn -2.912278 -3.637531 3.447010
v -5.499990 -4.757800 49.499680
vn -5.002554 -2.285327 2.159066
v -6.598890 -3.959100 48.743679
vn -2.866134 -1.744353 4.707642
v -5.499990 -2.162140 51.180679
vn -5.005690 -1.022383 2.958194
v -6.598890 -1.799260 50.142681
vn -2.947293 0.714240 4.963521
v -5.499990 0.915600 51.483669
vn -5.004765 0.436406 3.102574
v -6.598890 0.761720 50.394680
vn -2.937435 2.916411 4.077724
v -5.499990 3.788920 50.339680
vn -5.003398 1.815208 2.562586
v -6.598890 3.152590 49.442669
vn -2.903239 4.455846 2.335601
v -5.499990 5.816890 48.004681
vn -3.581361 4.921495 0.630701
v -5.763390 6.376160 44.999680
vn -5.023530 2.764073 1.442918
v -6.598890 4.840070 47.500690
vn -4.939258 3.561190 0.560864
v -6.427090 5.712470 44.999680
vn -0.947591 -5.505896 -2.377848
v -3.999990 -6.401530 42.291691
vn -0.833260 -5.995989 -0.701899
v -3.999990 -6.894150 44.113682
vn -0.901636 -5.961338 0.786862
v -3.999990 -6.878280 46.001678
vn -0.958892 -5.422436 2.537890
v -3.999990 -6.355070 47.814678
vn -0.874142 -4.711109 3.745256
v -3.999990 -5.363070 49.420681
vn -1.141481 -3.243793 4.931647
v -3.999990 -3.975530 50.700680
vn -0.870474 -2.078941 5.642850
v -3.999990 -2.294790 51.560680
vn -0.922360 -0.412575 5.993773
v -3.999990 -0.444830 51.935680
vn -0.832079 1.317501 5.892117
v -3.999990 1.437860 51.798672
vn -0.900821 2.710020 5.368316
v -3.999990 3.214490 51.160679
vn -0.958764 4.184749 4.281348
v -3.999990 4.753700 50.068680
vn -0.874540 5.090334 3.210469
v -3.999990 5.942760 48.601681
vn -1.142428 5.725614 1.432764
v -3.999990 6.692740 46.869671
vn -5.669964 2.073430 0.752987
v -6.853190 4.876160 44.999680
vn -1.767617 5.768407 0.761828
v -4.927090 6.802280 44.999680
vn -6.120364 -0.126291 0.985723
v -6.999990 -0.252820 48.941681
vn -6.148396 0.221637 0.877124
v -6.999990 0.817340 48.863682
vn -6.147433 -0.264617 0.866348
v -6.999990 -1.304410 48.728680
vn -6.141081 0.392483 0.842444
v -6.999990 1.827150 48.501678
vn -6.146614 -0.514552 0.754127
v -6.999990 -2.259830 48.239689
vn -6.147551 0.640319 0.645236
v -6.999990 2.701940 47.879681
vn -6.283185 0.000000 0.000000
v -6.999990 -0.000900 44.999680
vn -6.152447 -0.701116 0.551334
v -6.999990 -3.048550 47.512680
vn -6.152654 0.751358 0.479369
v -6.999990 3.377610 47.045681
vn -6.147438 -0.820858 0.391340
v -6.999990 -3.612390 46.599689
vn -6.132082 0.916076 0.278955
v -6.999990 3.803680 46.061680
vn -6.141324 -0.924057 0.092310
v -6.999990 -3.909690 45.568680
vn -6.240797 0.512315 0.036513
v -6.999990 3.949110 44.999680
vn -6.148348 -0.901235 -0.080520
v -6.999990 -3.918550 44.495682
vn -0.564217 3.002292 3.803196
v -3.999990 6.949110 44.999680
vn -0.167634 3.132657 3.034828
v -4.460190 7.999110 44.999680
vn 5.126015 -3.610020 0.002895
v 8.355260 -5.500890 23.999680
vn 5.525532 -2.974726 -0.000204
v 8.735360 -4.875020 23.999680
vn 5.830726 -2.290103 0.102342
v 9.281360 -3.732460 23.999680
vn 6.058024 -1.548875 0.225648
v 9.678760 -2.529100 23.999680
vn 4.468753 4.394156 0.070567
v 7.436660 6.698100 34.493679
vn 5.160078 3.320322 -0.003749
v 8.314370 5.818490 29.529850
vn 5.935771 -1.956630 0.137824
v 8.893860 -4.469790 29.519680
vn 6.074819 -1.150107 0.516521
v 8.765460 -4.195630 35.802670
vn 6.183301 -1.008451 0.341501
v 9.260760 -2.792320 29.519680
vn 6.255620 -0.260513 0.514309
v 8.919060 -2.274390 35.045681
vn 6.240900 -0.405824 0.521810
v 9.450960 -1.098150 29.519680
vn 6.256372 -0.044062 0.568724
v 8.966760 -0.338180 35.045681
vn 6.247824 0.207715 0.562609
v 9.476660 0.606810 29.519680
vn 6.256741 0.201235 0.522110
v 8.945760 1.601780 35.045681
vn 6.192932 0.882780 0.465306
v 9.335760 2.317980 29.519680
vn 6.166770 0.969420 0.339563
v 8.838960 3.554960 35.045681
vn 5.421906 2.824177 0.185828
v 8.307080 5.677380 34.689571
vn 6.002355 1.756378 0.207247
v 8.986160 4.043250 29.519680
vn 0.001057 -6.213507 -0.005663
v 0.004160 -10.000890 29.523680
vn -0.000096 -6.157147 0.427382
v 0.003360 -10.000890 30.087681
vn 1.418841 -6.031324 0.531713
v 2.933660 -9.565290 30.586679
vn 2.017436 -5.841951 0.080113
v 3.434730 -9.481620 29.130791
vn 1.658241 -6.052746 -0.244730
v 3.490760 -9.373440 25.999680
vn 0.878333 -6.161084 -0.081860
v 1.453160 -9.895440 25.999680
vn 2.703882 -5.569688 -0.148790
v 4.394590 -9.103150 25.999680
vn 2.626111 -5.581396 0.448073
v 4.418760 -8.981680 31.253679
vn 3.985820 -4.777295 0.011558
v 6.335660 -7.760610 29.523680
vn 3.608629 -5.105354 0.152162
v 5.843460 -8.135340 32.223679
vn 4.415022 -4.425641 0.029840
v 7.020160 -7.126580 25.999680
vn 4.440136 -4.342812 0.120050
v 7.144460 -7.031380 33.489689
vn 5.143132 -3.242925 0.505679
v 8.271760 -5.672660 35.048679
vn 5.257047 -3.307529 0.037651
v 8.545660 -5.261910 29.523680
vn 0.469867 -5.310896 3.269379
v 4.684860 -8.143470 33.370682
vn 1.283114 6.116322 0.004319
v 5.306460 7.913910 34.498669
vn 2.520824 5.717857 0.014714
v 6.095760 7.660570 34.498669
vn 3.645275 5.073979 0.019673
v 6.815860 7.249970 34.499680
vn 3.455682 -4.992251 1.148154
v 6.913960 -7.185970 33.869671
vn 2.953000 -5.394249 0.778884
v 5.654960 -8.252060 32.346680
vn 1.671850 -5.544442 2.079073
v 5.014160 -8.443580 32.718681
vn 1.260858 -5.748338 1.776047
v 3.313360 -9.324590 31.459681
vn 0.602436 -5.911195 1.073400
v 1.180460 -9.863430 30.690680
vn 3.644754 -5.109530 -0.070300
v 5.374260 -8.436670 25.999680
vn 3.422735 -5.234730 -0.088304
v 5.719860 -8.206490 23.999680
vn 4.018302 -4.816656 0.021089
v 6.466160 -7.632590 23.999680
vn 4.593730 -4.262131 0.010372
v 7.161860 -6.984240 23.999680
vn -4.593730 -4.262131 0.010372
v -7.158190 -6.984240 23.999680
vn -4.018302 -4.816656 0.021089
v -6.462490 -7.632590 23.999680
vn -3.422734 -5.234731 -0.088304
v -5.716190 -8.206490 23.999680
vn -3.644754 -5.109530 -0.070301
v -5.370590 -8.436670 25.999680
vn -0.602415 -5.910964 1.071217
v -1.176790 -9.863430 30.690680
vn -1.260858 -5.748338 1.776047
v -3.309690 -9.324590 31.459681
vn -1.671851 -5.544441 2.079075
v -5.010490 -8.443580 32.718681
vn -2.953000 -5.394249 0.778886
v -5.651290 -8.252060 32.346680
vn -1.916583 -5.348988 2.375711
v -6.310690 -7.379310 34.238682
vn -3.455675 -4.992253 1.148158
v -6.910290 -7.185970 33.869671
vn -3.890986 -4.407214 1.608078
v -7.854190 -6.040280 35.505680
vn -3.645275 5.073979 0.019673
v -6.812190 7.249970 34.499680
vn -2.520824 5.717857 0.014714
v -6.092090 7.660570 34.498669
vn -1.283114 6.116322 0.004319
v -5.302790 7.913910 34.498669
vn -5.139211 -3.240812 0.523695
v -8.268090 -5.672660 35.048679
vn -0.469873 -5.310894 3.269380
v -4.681190 -8.143470 33.370682
vn -0.513576 -5.265264 3.337811
v -5.723090 -7.258910 34.633678
vn -5.257046 -3.307530 0.037651
v -8.541990 -5.261910 29.523680
vn -4.440136 -4.342813 0.120050
v -7.140790 -7.031380 33.489689
vn -4.415022 -4.425641 0.029840
v -7.016490 -7.126580 25.999680
vn -3.608630 -5.105353 0.152162
v -5.839790 -8.135340 32.223679
vn -3.985820 -4.777295 0.011558
v -6.331990 -7.760610 29.523680
vn -2.626111 -5.581395 0.448072
v -4.415090 -8.981680 31.253679
vn -2.703858 -5.569695 -0.148791
v -4.390920 -9.103150 25.999680
vn -0.878256 -6.161078 -0.081972
v -1.449490 -9.895440 25.999680
vn -1.658223 -6.052752 -0.244733
v -3.487090 -9.373430 25.999680
vn -2.017056 -5.842009 0.080195
v -3.431060 -9.481620 29.130791
vn -1.418495 -6.031375 0.531373
v -2.929990 -9.565290 30.586679
vn -0.000135 -6.229501 -0.144738
v 0.001840 -10.000190 25.999689
vn -6.002355 1.756379 0.207247
v -8.982490 4.043250 29.519680
vn -5.421907 2.824176 0.185828
v -8.303410 5.677380 34.689571
vn -6.166770 0.969421 0.339563
v -8.835290 3.554960 35.045681
vn -6.192932 0.882781 0.465306
v -9.332090 2.317980 29.519680
vn -6.256741 0.201235 0.522110
v -8.942090 1.601780 35.045681
vn -6.247824 0.207715 0.562609
v -9.472990 0.606810 29.519680
vn -6.256371 -0.044062 0.568724
v -8.963090 -0.338180 35.045681
vn -6.240899 -0.405825 0.521810
v -9.447290 -1.098150 29.519680
vn -6.255620 -0.260513 0.514309
v -8.915390 -2.274390 35.045681
vn -6.183302 -1.008451 0.341501
v -9.257090 -2.792320 29.519680
vn -6.074818 -1.150109 0.516523
v -8.761790 -4.195630 35.802670
vn -5.935772 -1.956628 0.137824
v -8.890190 -4.469790 29.519680
vn -5.160079 3.320321 -0.003749
v -8.310700 5.818490 29.529850
vn -4.468754 4.394154 0.070567
v -7.432990 6.698100 34.493679
vn -6.058024 -1.548873 0.225648
v -9.675090 -2.529100 23.999680
vn -5.830726 -2.290103 0.102343
v -9.277690 -3.732460 23.999680
vn -5.525532 -2.974726 -0.000204
v -8.731690 -4.875020 23.999680
vn -5.126014 -3.610021 0.002895
v -8.351590 -5.500890 23.999680
vn 0.000000 4.162238 -4.211532
v 0.001830 7.242000 10.605690
vn -0.718711 -2.747063 -4.243686
v 4.003660 4.251520 9.999690
vn -0.959796 5.709359 -1.526684
v 5.650060 6.949110 8.252680
vn -2.080978 2.851005 -2.182181
v 5.550060 6.949110 5.594690
vn -0.474508 6.004866 -1.211243
v 3.897260 6.949110 9.210680
vn -0.111047 5.942384 -1.390545
v 3.636860 6.940930 6.609690
vn -0.335352 5.971927 -1.322467
v 1.989660 6.949110 9.800690
vn -0.000077 5.967758 -1.370725
v 0.003660 6.949110 9.999690
vn 0.000004 6.283114 -0.020178
v 0.003660 6.949110 7.847680
vn -1.596477 3.862945 -3.783127
v 4.306360 7.242000 9.804690
vn -0.561716 3.892161 -4.060391
v 1.474960 7.242000 10.605690
vn -1.720156 -5.011486 -2.936477
v 4.324870 5.064480 8.406970
vn -0.621257 2.690063 -4.726673
v 3.636860 6.825380 6.400690
vn -1.505163 -4.482147 -3.995756
v 4.388860 6.062160 6.656680
vn -2.476548 -2.237848 -4.337245
v 4.686660 3.945900 9.879690
vn -1.758675 -2.303208 -4.534494
v 4.349360 4.093180 9.969690
vn -0.467069 -2.544678 -5.446319
v 3.633710 6.436880 6.431680
vn -2.032613 0.439521 -5.099352
v 4.435060 6.732640 6.195680
vn -0.959743 5.362335 -2.122879
v 4.490760 6.913660 6.330690
vn -4.882882 -2.051920 -1.863410
v 5.943460 3.821930 8.454690
vn -4.831253 -2.160628 -1.443194
v 6.004000 4.021170 8.044680
vn 4.889256 -2.125770 -1.428341
v -6.000000 4.021170 8.044680
vn 4.931557 -2.011587 -1.861494
v -5.939790 3.821930 8.454690
vn 2.124570 2.811892 -2.151236
v -5.546390 6.949110 5.594690
vn 0.786722 5.437225 -1.922215
v -4.540400 6.949110 6.460680
vn 0.139290 5.928145 -1.459494
v -3.633200 6.940930 6.609690
vn 2.004921 0.220387 -5.193619
v -4.450750 6.646910 6.242190
vn 2.000787 -2.225178 -4.382704
v -4.345690 4.092220 9.969690
vn 0.418556 2.692329 -4.713523
v -3.633200 6.825380 6.400690
vn -0.196607 -4.931573 -3.798175
v 3.633210 5.953910 6.880680
vn 1.723575 -4.941232 -2.949888
v -4.323950 5.119410 8.419970
vn 0.561629 3.892222 -4.060255
v -1.471290 7.242000 10.605690
vn 1.596478 3.862949 -3.783127
v -4.302690 7.242000 9.804690
vn 0.335293 5.971920 -1.322495
v -1.985990 6.949110 9.800690
vn 0.475620 6.004896 -1.205057
v -3.893590 6.949110 9.210680
vn 0.712021 -2.715049 -4.322457
v -3.999990 4.251980 9.999690
vn -0.621315 -3.382121 -2.956591
v 4.475760 -8.000890 9.942690
vn -4.996225 -1.545039 -1.968379
v 6.003660 5.966710 5.623690
vn -5.299675 -1.680705 -1.521977
v 6.003660 4.863180 6.601680
vn -4.839068 -2.284959 -1.331250
v 6.003660 4.403650 7.393680
vn -3.918032 -1.822764 -3.789883
v 5.417360 3.622950 9.414690
vn -4.160530 -2.198526 -2.744422
v 5.731960 3.743110 9.003680
vn 4.212402 -2.156968 -2.764643
v -5.728290 3.743110 9.003680
vn 0.431906 -2.459296 -5.470291
v -3.633590 6.444350 6.426690
vn 2.847875 -1.961246 -4.299730
v -4.682990 3.852040 9.879690
vn 3.642837 -1.916783 -3.917042
v -5.413690 3.622950 9.414690
vn 1.466759 -4.548226 -3.924452
v -4.385200 6.062160 6.656680
vn 0.173412 -4.972406 -3.723182
v -3.633200 5.953910 6.880680
vn 4.899780 -2.248974 -1.311723
v -5.999990 4.403650 7.393680
vn 5.337144 -1.656307 -1.495522
v -5.999990 4.863180 6.601680
vn 5.015125 -1.541829 -1.952002
v -6.000000 5.966710 5.623690
vn 0.621305 -3.382104 -2.956595
v -4.472090 -8.000890 9.942690
vn -5.180694 -3.399464 -0.521111
v -8.384790 -5.450200 -0.000310
vn -5.969205 -1.668605 -0.514253
v -9.639090 -2.663040 -0.000310
vn -4.330232 -3.981935 -1.732104
v -6.784090 -6.667560 -3.035010
vn -5.154161 -2.607289 -1.885191
v -8.510500 -4.282900 -3.039410
vn -4.665017 -2.147550 -3.353033
v -7.357800 -3.504250 -5.796010
vn 4.665018 -2.147553 -3.353031
v 7.361460 -3.504250 -5.796010
vn 5.154164 -2.607285 -1.885201
v 8.514160 -4.282900 -3.039410
vn 4.311262 -4.009619 -1.700467
v 6.787760 -6.667560 -3.035010
vn 5.969206 -1.668588 -0.514260
v 9.642760 -2.663040 -0.000310
vn 5.180687 -3.399471 -0.521112
v 8.388460 -5.450200 -0.000310
vn 5.664076 -2.527079 -0.492729
v 9.122760 -4.104820 -0.000310
vn -5.664078 -2.527078 -0.492720
v -9.119090 -4.104820 -0.000310
vn -0.130136 -6.248739 -0.470509
v -3.579190 -8.000890 13.998680
vn -0.863449 -5.613104 -2.603432
v -3.999990 -5.436640 40.668690
vn -3.009551 -4.847522 -2.353323
v -5.484590 -5.099620 40.937691
vn -3.186857 -4.987932 -1.838920
v -5.499990 -4.733560 40.215691
vn -3.379189 -5.149994 -0.376377
v -5.763290 -4.427970 39.422691
vn -4.951004 -3.093705 -1.549562
v -6.427090 -4.469430 41.439690
vn -5.444246 -2.751094 -0.796031
v -6.598090 -3.697010 40.577690
vn -5.037279 -3.663322 -0.297360
v -6.426990 -3.764290 39.422691
vn -5.958874 -1.703936 -0.220641
v -6.853190 -2.927980 39.422691
vn -5.937577 -1.859527 -0.782816
v -6.683100 -3.815340 41.960690
vn -6.130503 -0.851565 -0.454916
v -6.999990 -3.090280 42.538689
vn -6.193222 -0.665011 -0.333031
v -6.999990 -2.495940 41.591679
vn -6.210884 -0.657627 -0.070941
v -6.999990 -2.125570 40.532688
vn -6.240925 -0.505911 -0.024289
v -6.999990 -2.000890 39.422691
vn -0.750856 -5.557083 2.388772
v -5.363490 -4.673150 38.326679
vn -3.059282 -4.254632 2.406587
v -6.196190 -4.044600 39.224689
vn -1.794936 0.453227 2.793009
v -6.726990 -3.251330 38.743690
vn -1.366804 0.596877 2.572059
v -6.999990 -2.000890 38.278690
vn -1.418982 0.685093 2.722170
v -6.965490 -2.454800 38.421680
vn -0.785540 0.257045 2.253172
v -8.535990 -1.466230 39.604679
vn -0.818298 0.061793 2.412101
v -8.552890 -0.110870 39.434681
vn -0.822332 -0.433803 2.363254
v -8.540590 1.255950 39.559681
vn -0.847674 -0.913248 2.240581
v -8.504090 2.505680 39.953678
vn -0.906863 -0.988640 1.917989
v -8.453990 3.577210 40.560692
vn -0.606044 -5.142660 3.503963
v -6.768290 -5.705940 36.851688
vn 0.059325 -1.547772 4.386357
v -6.860090 -4.031100 39.225689
vn -1.079467 -0.225779 0.884611
v -6.929690 7.109440 44.999691
vn -1.353118 2.806501 2.885196
v -6.115990 7.640290 44.999691
vn -0.515670 -2.999329 3.899183
v -5.935890 7.049110 44.999691
vn -0.183402 -3.126833 3.139134
v -5.499990 6.949110 44.999691
vn -0.662947 3.052664 2.929532
v -5.310290 7.907720 44.999691
vn -0.335501 3.123599 0.001130
v -4.885290 7.953420 44.999691
vn -1.794374 -0.708220 1.161491
v -7.191690 6.827990 43.788689
vn -0.968542 -0.919347 1.446911
v -8.191990 4.976730 41.650688
vn -1.128554 -0.786479 1.158265
v -7.712790 6.061310 42.714680
vn -2.309150 -4.770086 3.105488
v -7.496390 -5.592170 36.775688
vn -0.070594 -1.106267 3.713952
v -7.603490 -3.569480 39.462681
vn -4.182931 -3.814919 2.280465
v -8.124690 -5.269180 36.551689
vn -0.390369 -0.627623 3.055152
v -8.062290 -2.974720 39.640690
vn -5.464161 -2.363993 1.173552
v -8.566890 -4.781270 36.211689
vn -0.900423 -0.012998 2.625722
v -8.399290 -2.255910 39.688679
vn -2.088610 -5.064271 2.739254
v -7.281290 -6.213660 35.902691
vn -1.332886 -0.613804 2.491607
v -6.999990 1.687170 38.193691
vn -1.368927 -0.117434 2.586791
v -6.999990 0.458910 38.002689
vn -1.422556 0.286400 2.607800
v -6.999990 -0.783350 38.031681
vn -1.362066 -1.098629 2.340213
v -6.999990 2.863040 38.599689
vn -1.376807 -1.462722 2.192331
v -6.999990 3.949110 39.205681
vn -6.120168 -0.889021 -0.445423
v -6.999990 -3.638390 43.459690
vn -1.394415 -0.239545 0.697252
v -5.033990 6.765270 43.411690
vn -1.944939 -0.393996 1.003274
v -5.499990 6.547190 42.670689
vn -1.953060 -0.693567 1.362330
v -5.935900 6.240910 41.721691
vn -1.940522 -1.067157 1.687415
v -6.396790 5.753410 40.926689
vn -1.526149 -1.387707 2.009225
v -6.838690 4.919540 39.959690
vn 2.432948 -4.774521 2.773157
v -7.080540 5.946690 41.498692
vn 3.411319 -3.819822 3.274853
v -7.434090 4.975970 40.428692
vn 4.639690 -2.865283 3.036559
v -8.191990 4.027150 40.553692
vn 3.737715 -2.779873 4.039197
v -7.434090 3.770770 39.392689
vn 4.581416 -2.016550 3.745347
v -8.191990 2.841990 39.716679
vn 3.753709 -1.704640 4.595328
v -7.434090 2.356780 38.667690
vn 4.602506 -1.054520 4.091925
v -8.191990 1.490650 39.188679
vn 3.757105 -0.601717 4.861482
v -7.434090 0.812530 38.291691
vn 4.612268 -0.050082 4.212516
v -8.191990 0.051670 39.000690
vn 3.773313 0.561169 4.856539
v -7.434090 -0.776800 38.287682
vn 4.592587 0.949945 4.129160
v -8.191990 -1.390010 39.163689
vn 3.738198 1.799621 4.548007
v -7.434090 -2.323200 38.653690
vn 1.320114 -5.393339 2.042951
v -6.726990 6.570480 42.446690
vn 0.729258 -5.860183 1.484744
v -6.726990 6.928420 43.700691
vn -2.933328 -4.937104 -0.959771
v -5.499990 -6.423670 43.724689
vn 3.009549 -4.847522 -2.353325
v 5.488260 -5.099620 40.937691
vn 4.880715 -3.251745 -1.649755
v 6.430760 -4.469430 41.439690
vn 2.933329 -4.937103 -0.959772
v 5.503660 -6.423670 43.724689
vn 5.026278 -3.065673 -0.575100
v 6.602560 -5.345260 43.938679
vn 5.854966 1.960071 0.248475
v 6.856860 4.876160 44.999691
vn -0.747440 -5.859341 1.502023
v 6.730660 6.928420 43.700691
vn 1.932338 0.464887 2.843173
v 6.730660 -3.251330 38.743690
vn -1.320113 -5.393339 2.042952
v 6.730660 6.570480 42.446690
vn -2.422447 -4.752603 2.807006
v 7.084210 5.946690 41.498692
vn -3.758580 1.763746 4.554139
v 7.437760 -2.323200 38.653690
vn -4.592585 0.949945 4.129162
v 8.195660 -1.390010 39.163689
vn -3.773315 0.561169 4.856538
v 7.437760 -0.776800 38.287682
vn -4.612268 -0.050081 4.212516
v 8.195660 0.051670 39.000690
vn -3.757106 -0.601717 4.861481
v 7.437760 0.812530 38.291691
vn -4.602506 -1.054520 4.091925
v 8.195660 1.490650 39.188679
vn -3.753710 -1.704640 4.595328
v 7.437760 2.356780 38.667690
vn -4.581416 -2.016550 3.745347
v 8.195660 2.841990 39.716679
vn -3.737716 -2.779873 4.039197
v 7.437760 3.770770 39.392689
vn -4.639690 -2.865283 3.036559
v 8.195660 4.027150 40.553692
vn -3.320146 -3.874308 3.257725
v 7.437760 4.975970 40.428692
vn 1.511344 -1.416433 1.958374
v 6.842360 4.919540 39.959690
vn 1.847689 -1.024400 1.702208
v 6.400460 5.753410 40.926689
vn 4.898177 3.670287 0.484560
v 6.430760 5.712470 44.999691
vn 1.953034 -0.693536 1.362312
v 5.939560 6.240910 41.721691
vn 1.944963 -0.394012 1.003273
v 5.503660 6.547190 42.670689
vn 1.394416 -0.239546 0.697253
v 5.037660 6.765270 43.411690
vn 1.767611 5.768406 0.761836
v 4.930760 6.802280 44.999691
vn 6.179010 0.744531 0.293130
v 7.003660 3.803680 46.061680
vn 6.141324 -0.924058 0.092312
v 7.003660 -3.909690 45.568691
vn 6.240797 0.512315 0.036514
v 7.003660 3.949110 44.999691
vn 6.148348 -0.901235 -0.080519
v 7.003660 -3.918550 44.495689
vn 6.120167 -0.889023 -0.445424
v 7.003660 -3.638390 43.459690
vn 1.376806 -1.462722 2.192331
v 7.003660 3.949110 39.205681
vn 1.362065 -1.098628 2.340212
v 7.003660 2.863040 38.599689
vn 1.422555 0.286400 2.607800
v 7.003660 -0.783350 38.031681
vn 1.368925 -0.117434 2.586790
v 7.003660 0.458910 38.002689
vn 1.332885 -0.613804 2.491606
v 7.003660 1.687170 38.193691
vn 1.916593 -5.348986 2.375703
v 6.314360 -7.379310 34.238689
vn 4.176958 -3.814304 2.303606
v 8.128360 -5.269180 36.551689
vn 3.878467 -4.425810 1.603457
v 7.857860 -6.040280 35.505680
vn 2.088617 -5.064270 2.739255
v 7.284960 -6.213660 35.902691
vn 0.900422 -0.012999 2.625724
v 8.402960 -2.255910 39.688679
vn 5.472550 -2.350396 1.178162
v 8.570560 -4.781270 36.211689
vn 0.390369 -0.627623 3.055153
v 8.065960 -2.974720 39.640690
vn -0.012630 -1.083550 3.655673
v 7.607160 -3.569480 39.462681
vn -0.055661 -1.563849 4.347855
v 6.993460 -4.001490 39.237690
vn 2.311592 -4.772412 3.101373
v 7.500060 -5.592170 36.775688
vn 1.128555 -0.786479 1.158265
v 7.716460 6.061310 42.714680
vn 0.968543 -0.919348 1.446912
v 8.195660 4.976730 41.650688
vn 1.794375 -0.708220 1.161491
v 7.195360 6.827990 43.788689
vn 0.335505 3.123599 0.001129
v 4.888960 7.953420 44.999691
vn 0.662947 3.052659 2.929533
v 5.313960 7.